<svg width="38" height="38" viewBox="0 0 38 38" fill="none" xmlns="http://www.w3.org/2000/svg">
<path d="M35.6875 0.0422363H6.7734C6.359 0.0422363 5.96157 0.206856 5.66854 0.499882C5.37552 0.792907 5.2109 1.19034 5.2109 1.60474C5.2109 2.01914 5.37552 2.41656 5.66854 2.70959C5.96157 3.00262 6.359 3.16724 6.7734 3.16724H32.6234L0.562461 35.2297C0.407475 35.3724 0.282932 35.5449 0.196317 35.7369C0.109702 35.9289 0.0628038 36.1364 0.0584407 36.347C0.0540776 36.5576 0.0923401 36.7669 0.170928 36.9624C0.249516 37.1578 0.366807 37.3353 0.515751 37.4843C0.664696 37.6332 0.842217 37.7505 1.03765 37.8291C1.23308 37.9077 1.44238 37.9459 1.65297 37.9416C1.86356 37.9372 2.0711 37.8903 2.26311 37.8037C2.45512 37.7171 2.62763 37.5925 2.77027 37.4375L34.8328 5.37505V31.2266C34.8328 31.641 34.9974 32.0384 35.2904 32.3315C35.5834 32.6245 35.9809 32.7891 36.3953 32.7891C36.8097 32.7891 37.2071 32.6245 37.5001 32.3315C37.7932 32.0384 37.9578 31.641 37.9578 31.2266V2.31411C37.9569 1.7121 37.7175 1.13495 37.292 0.709117C36.8665 0.283281 36.2895 0.0434762 35.6875 0.0422363Z" fill="#111C24"/>
</svg>
