<svg width="38" height="38" viewBox="0 0 38 38" fill="none" xmlns="http://www.w3.org/2000/svg">
<path d="M35.6875 0.0421753H6.77346C6.35906 0.0421753 5.96163 0.206795 5.6686 0.499821C5.37558 0.792846 5.21096 1.19027 5.21096 1.60468C5.21096 2.01908 5.37558 2.4165 5.6686 2.70953C5.96163 3.00255 6.35906 3.16718 6.77346 3.16718H32.6235L0.562522 35.2297C0.407536 35.3723 0.282993 35.5448 0.196378 35.7368C0.109763 35.9288 0.0628649 36.1364 0.0585018 36.347C0.0541387 36.5576 0.0924011 36.7669 0.170989 36.9623C0.249577 37.1577 0.366868 37.3353 0.515812 37.4842C0.664757 37.6331 0.842278 37.7504 1.03771 37.829C1.23314 37.9076 1.44244 37.9459 1.65303 37.9415C1.86363 37.9371 2.07116 37.8902 2.26317 37.8036C2.45518 37.717 2.62769 37.5925 2.77033 37.4375L34.8328 5.37499V31.2266C34.8328 31.641 34.9975 32.0384 35.2905 32.3314C35.5835 32.6244 35.9809 32.7891 36.3953 32.7891C36.8097 32.7891 37.2072 32.6244 37.5002 32.3314C37.7932 32.0384 37.9578 31.641 37.9578 31.2266V2.31405C37.957 1.71204 37.7176 1.13489 37.2921 0.709056C36.8665 0.28322 36.2895 0.0434151 35.6875 0.0421753Z" fill="#CAFC01"/>
</svg>
